<svg xmlns="http://www.w3.org/2000/svg" viewBox="0 0 180 190" fill="none">
  <rect x="12" y="16" width="156" height="156" rx="38" fill="#F3FAF1"/>
  <g transform="rotate(-6 90 85)">
    <path d="M136 44C126 20 70 24 58 50C48 72 76 82 98 86C136 94 146 122 116 144C94 160 54 152 46 128" stroke="#9FD7A8" stroke-width="8" stroke-linecap="round"/>
    <path d="M140 58C130 34 74 38 62 64C52 86 80 96 102 100C140 108 150 136 120 158C98 174 58 166 50 142" stroke="#4F8F66" stroke-width="7" stroke-linecap="round"/>
    <path d="M144 72C134 48 78 52 66 78C56 100 84 110 106 114C144 122 154 150 124 172C102 188 62 180 54 156" stroke="#1F4D36" stroke-width="8" stroke-linecap="round"/>
  </g>
</svg>
